<?xml version="1.0" standalone="no"?>
<!DOCTYPE svg PUBLIC "-//W3C//DTD SVG 20010904//EN"
 "http://www.w3.org/TR/2001/REC-SVG-20010904/DTD/svg10.dtd">
<svg version="1.0" xmlns="http://www.w3.org/2000/svg"
 width="800.000000pt" height="800.000000pt" viewBox="0 0 800.000000 800.000000"
 preserveAspectRatio="xMidYMid meet">
<metadata>
Created by potrace 1.14, written by Peter Selinger 2001-2017
</metadata>
<g transform="translate(0.000000,800.000000) scale(0.100000,-0.100000)"
fill="#000000" stroke="none">
<path d="M3710 7994 c-19 -2 -82 -9 -140 -14 -1275 -132 -2419 -882 -3055
-2004 -224 -396 -379 -829 -459 -1286 -45 -250 -50 -327 -50 -690 0 -363 5
-437 50 -690 209 -1183 916 -2190 1959 -2790 455 -262 978 -431 1555 -502 141
-17 719 -17 860 0 481 59 906 180 1305 371 942 452 1672 1259 2029 2245 106
291 176 593 218 936 20 163 17 751 -5 910 -128 923 -494 1687 -1115 2322 -643
657 -1436 1047 -2387 1174 -113 15 -672 28 -765 18z m2175 -2074 c99 -15 230
-48 299 -76 68 -27 190 -101 255 -153 113 -91 229 -281 272 -446 30 -113 37
-360 15 -510 -51 -345 -218 -657 -476 -888 -63 -57 -187 -140 -290 -196 -104
-55 -314 -125 -445 -146 -120 -20 -406 -26 -530 -12 -132 16 -343 12 -450 -8
-16 -3 -48 -7 -70 -10 -22 -3 -41 -9 -43 -15 -2 -5 -8 -10 -13 -10 -6 0 -7 5
-3 11 5 8 1 8 -14 0 -11 -6 -32 -11 -46 -11 -31 0 -32 8 -12 147 8 54 24 166
35 248 38 275 61 439 81 575 10 74 28 203 40 285 12 83 30 211 41 285 11 74
22 151 24 170 2 19 13 96 24 170 11 74 30 203 41 285 12 83 26 180 32 218 l10
67 81 1 c45 0 231 7 412 13 425 17 643 18 730 6z m-1425 -49 c0 -32 -280
-1987 -326 -2271 -8 -52 -17 -110 -20 -128 l-5 -33 -145 3 c-79 2 -144 0 -144
-3 0 -3 -6 -6 -12 -6 -7 0 -91 -3 -187 -8 l-174 -7 6 23 c3 13 13 76 22 139 9
63 24 176 35 250 10 74 28 205 40 290 12 85 28 198 36 250 8 52 21 147 29 211
8 64 18 130 21 147 13 63 -14 30 -69 -85 -122 -259 -492 -1024 -543 -1124
l-54 -106 -48 -6 c-100 -13 -467 -19 -493 -9 -24 10 -28 20 -47 114 -27 138
-231 1157 -238 1187 -3 13 -9 20 -13 15 -5 -5 -25 -126 -45 -269 -50 -354
-156 -1068 -159 -1071 -4 -4 -322 -24 -494 -30 -122 -5 -173 -4 -173 4 0 6 9
68 20 139 23 154 60 413 100 698 11 77 26 187 35 245 8 58 24 170 35 250 52
361 62 433 80 555 38 258 53 362 65 453 6 51 16 97 21 101 9 8 802 37 808 30
2 -2 90 -353 195 -779 106 -426 196 -779 201 -783 10 -11 39 44 632 1211 110
215 200 393 201 393 3 2 624 26 720 27 80 2 87 0 87 -17z m1738 -2611 c140
-18 250 -95 291 -204 15 -42 21 -79 21 -145 0 -154 -50 -271 -160 -375 -116
-109 -255 -156 -461 -156 -81 0 -120 -4 -127 -12 -5 -7 -17 -65 -25 -128 -21
-148 -48 -324 -50 -326 -8 -6 -357 -9 -357 -3 0 5 20 147 44 316 25 169 68
468 96 663 28 195 52 356 54 357 2 2 416 18 546 21 30 1 88 -3 128 -8z m-1321
-21 c229 -32 375 -152 449 -369 15 -44 19 -84 19 -205 -1 -173 -12 -228 -80
-370 -93 -194 -234 -317 -450 -390 -66 -22 -104 -28 -210 -32 -152 -6 -213 4
-312 51 -139 67 -237 191 -278 351 -19 73 -19 243 -1 345 34 189 145 372 292
476 110 78 230 124 377 143 90 12 107 12 194 0z m-867 -66 c0 -15 -9 -83 -20
-152 -18 -118 -85 -584 -116 -806 -26 -188 -52 -356 -55 -359 -2 -2 -84 -6
-182 -8 l-177 -5 5 31 c16 94 65 461 65 485 l0 29 -202 -5 c-289 -5 -263 4
-277 -101 -6 -48 -23 -169 -38 -268 l-28 -182 -65 -6 c-95 -9 -300 -7 -300 2
0 5 4 33 10 63 5 30 16 104 24 164 8 61 22 157 30 215 9 58 25 170 37 250 11
80 29 201 39 270 11 69 27 179 36 245 9 66 19 123 23 126 3 4 85 9 183 12
l176 6 -5 -42 c-2 -23 -11 -82 -18 -132 -15 -91 -45 -313 -45 -329 0 -9 455
-4 465 6 4 3 22 114 41 245 19 131 36 243 39 250 4 12 59 16 263 21 l92 2 0
-27z m-1740 -13 c36 -6 98 -22 138 -36 87 -31 169 -100 201 -169 22 -47 44
-165 32 -176 -3 -4 -93 -10 -198 -14 l-193 -7 0 29 c0 41 -25 71 -69 84 -55
16 -105 4 -135 -32 -31 -37 -33 -73 -6 -117 16 -26 55 -49 212 -126 262 -128
314 -179 338 -332 14 -83 7 -141 -25 -211 -45 -99 -138 -178 -270 -229 -61
-24 -88 -28 -215 -32 -115 -3 -159 -1 -210 12 -143 37 -239 104 -284 200 -25
54 -43 163 -29 182 5 7 75 13 196 16 185 5 187 5 187 -16 0 -32 35 -83 69
-101 83 -42 191 9 191 91 0 64 -65 113 -230 174 -207 76 -299 155 -336 289
-36 127 16 294 118 386 83 74 163 109 303 131 102 15 135 16 215 4z"/>
<path d="M5371 5341 l-115 -6 -7 -30 c-17 -72 -182 -1245 -176 -1252 4 -3 91
-1 195 5 211 12 275 27 405 95 236 122 381 383 381 687 0 225 -73 360 -239
443 -103 52 -228 68 -444 58z"/>
<path d="M5840 2958 c0 -7 -9 -73 -20 -147 -11 -74 -17 -138 -14 -142 15 -24
223 -1 263 29 58 43 88 130 70 198 -18 62 -46 74 -180 74 -89 0 -119 -3 -119
-12z"/>
<path d="M4631 2895 c-70 -20 -108 -44 -161 -101 -116 -125 -151 -350 -75
-480 48 -81 163 -125 277 -105 130 23 208 83 270 208 l43 86 0 121 c0 128 -9
159 -59 214 -57 63 -185 88 -295 57z"/>
</g>
</svg>
